<svg width="22" height="22" viewBox="0 0 22 22" fill="none" xmlns="http://www.w3.org/2000/svg">
<path d="M16.2378 0.0239258C19.4069 0.0239258 21.9761 2.59314 21.9761 5.76221V16.2378C21.9761 19.4069 19.4069 21.9761 16.2378 21.9761H5.76221C2.59314 21.9761 0.0239258 19.4069 0.0239258 16.2378V5.76221C0.0239258 2.59314 2.59314 0.0239258 5.76221 0.0239258H16.2378ZM5.76221 1.02393C3.14543 1.02393 1.02393 3.14543 1.02393 5.76221V16.2378C1.02393 18.8546 3.14543 20.9761 5.76221 20.9761H16.2378C18.8546 20.9761 20.9761 18.8546 20.9761 16.2378V5.76221C20.9761 3.14543 18.8546 1.02393 16.2378 1.02393H5.76221ZM8.88525 6.7915C9.76096 6.33711 10.758 6.17023 11.7339 6.31494C12.7292 6.46262 13.6503 6.92672 14.3618 7.63818C15.0734 8.34977 15.5374 9.27164 15.6851 10.2671C15.8296 11.2428 15.6628 12.2392 15.2085 13.1147C14.7541 13.9904 14.035 14.7005 13.1538 15.144C12.2726 15.5875 11.2742 15.7422 10.3003 15.5854C9.32626 15.4287 8.42661 14.9686 7.729 14.271C7.03143 13.5734 6.57129 12.6737 6.41455 11.6997C6.25785 10.7258 6.4125 9.72735 6.85596 8.84619C7.29951 7.96496 8.00956 7.24589 8.88525 6.7915ZM11.5864 7.3042C10.8188 7.19044 10.035 7.32183 9.34619 7.6792C8.65718 8.03671 8.09753 8.60204 7.74854 9.29541C7.39968 9.98861 7.27865 10.7743 7.40186 11.5405C7.52518 12.3069 7.88719 13.0151 8.43604 13.564C8.98492 14.1128 9.6931 14.4748 10.4595 14.5981C11.2257 14.7214 12.0114 14.6003 12.7046 14.2515C13.3978 13.9026 13.9633 13.3436 14.3208 12.6548C14.6783 11.9659 14.8096 11.1813 14.6958 10.4136C14.5797 9.63036 14.2147 8.9051 13.6548 8.34521C13.0949 7.78537 12.3696 7.42034 11.5864 7.3042ZM16.772 4.73779C17.0479 4.73789 17.2717 4.9619 17.272 5.23779C17.272 5.51387 17.048 5.73769 16.772 5.73779H16.7622C16.4861 5.73779 16.2622 5.51394 16.2622 5.23779C16.2624 4.96184 16.4862 4.73779 16.7622 4.73779H16.772Z" fill="black"/>
</svg>
